<?xml version="1.0" encoding="UTF-8"?>
<svg id="Layer_1" xmlns="http://www.w3.org/2000/svg" version="1.1" viewBox="0 0 3873 3873">
  <!-- Generator: Adobe Illustrator 30.3.0, SVG Export Plug-In . SVG Version: 2.1.3 Build 182)  -->
  <defs>
    <style>
      .st0 {
        fill: #002171;
        fill-rule: evenodd;
      }
    </style>
  </defs>
  <g id="Layer_x5F_1">
    <path class="st0" d="M1773.7,3187.5c-31,0-62.2-9.5-89-29.2L282.3,2123.5c-17.3-10.3-32.1-23.8-44.1-40-24-32.5-33.8-72.4-27.8-112.3,6.1-40,27.2-75.2,59.7-99.1,1.6-1.2,3.4-2.2,5.1-2.9L1684.7,829.2h0c32.4-23.9,72.1-33.6,111.9-27.7,39.8,6,74.8,27.2,98.6,59.6,49.2,66.8,34.8,161.2-31.9,210.5l-1249.8,922.2,1249.8,922.1c32.4,23.9,53.5,58.9,59.5,98.6,6.1,39.7-3.8,79.5-27.6,111.9-29.5,40-75.2,61.2-121.4,61.2h0Z"/>
  </g>
  <g id="Layer_x5F_11" data-name="Layer_x5F_1">
    <path class="st0" d="M2712.2,3130.3c-31,0-62.2-9.5-89-29.2l-1402.3-1034.8c-17.3-10.3-32.1-23.8-44.1-40-24-32.5-33.8-72.4-27.8-112.3,6.1-40,27.2-75.2,59.7-99.1,1.6-1.2,3.4-2.2,5.1-2.9l1409.4-1040h0c32.4-23.9,72.1-33.6,111.9-27.7,39.8,6,74.8,27.2,98.6,59.6,49.2,66.8,34.8,161.2-31.9,210.5l-1249.8,922.2,1249.8,922.1c32.4,23.9,53.5,58.9,59.5,98.6,6.1,39.7-3.8,79.5-27.6,111.9-29.5,40-75.2,61.2-121.4,61.2h0Z"/>
  </g>
</svg>