<?xml version="1.0" encoding="UTF-8"?>
<svg id="Layer_1" xmlns="http://www.w3.org/2000/svg" version="1.1" viewBox="0 0 3873 3873">
  <!-- Generator: Adobe Illustrator 30.3.0, SVG Export Plug-In . SVG Version: 2.1.3 Build 182)  -->
  <defs>
    <style>
      .st0 {
        fill: #002171;
        fill-rule: evenodd;
      }
    </style>
  </defs>
  <g id="Layer_x5F_1">
    <path class="st0" d="M1298,3187.5c-46.2,0-91.9-21.2-121.4-61.2-23.8-32.4-33.7-72.2-27.6-111.9,6-39.8,27.1-74.8,59.5-98.6l1249.8-922.1-1249.8-922.2c-66.7-49.2-81.1-143.6-31.9-210.5,23.8-32.4,58.8-53.6,98.6-59.6,39.8-6,79.5,3.8,111.9,27.7h0l1409.4,1040c1.7.7,3.5,1.7,5.1,2.9,32.5,24,53.7,59.2,59.7,99.1,6,39.9-3.9,79.8-27.8,112.3-12.1,16.2-26.9,29.7-44.1,40l-1402.3,1034.8c-26.8,19.7-58,29.2-89,29.2h0Z"/>
  </g>
  <g id="Layer_x5F_11" data-name="Layer_x5F_1">
    <path class="st0" d="M359.4,3130.3c-46.2,0-91.9-21.2-121.4-61.2-23.8-32.4-33.7-72.2-27.6-111.9,6-39.8,27.1-74.8,59.5-98.6l1249.8-922.1L269.9,1014.4c-66.7-49.2-81.1-143.6-31.9-210.5,23.8-32.4,58.8-53.6,98.6-59.6,39.8-6,79.5,3.8,111.9,27.7h0l1409.4,1040c1.7.7,3.5,1.7,5.1,2.9,32.5,24,53.7,59.2,59.7,99.1,6,39.9-3.9,79.8-27.8,112.3-12.1,16.2-26.9,29.7-44.1,40L448.5,3101.1c-26.8,19.7-58,29.2-89,29.2h0Z"/>
  </g>
</svg>